<svg width="512" height="512" xmlns="http://www.w3.org/2000/svg">

 <g>
  <title>background</title>
  <rect fill="none" id="canvas_background" height="402" width="582" y="-1" x="-1"/>
 </g>
 <g>
  <title>Layer 1</title>
  <path fill="#bfbfbf" id="XMLID_558_" d="m1271.8,2835.7c-25.7,0 -46.7,-20.4 -46.7,-45.4l0,-38.2l-20.2,-15.2l0,-132.4l20.2,0l0,-197.5c0,-25 20.9,-45.4 46.7,-45.4l56.9,0l0,-10.3l124.7,0l10.6,10.3l82.6,0c25.7,0 46.7,20.4 46.7,45.4l0,80.4l7.9,7.6l0,121.4l-7.9,0l0,173.9c0,25 -20.9,45.4 -46.7,45.4l-274.8,0z" class="st0"/>
  <path fill="#ffffff" id="XMLID_557_" d="m1255.5,2819.8c-25.7,0 -46.7,-20.4 -46.7,-45.4l0,-38.2l-20.2,-15.2l0,-132.4l20.2,0l0,-197.6c0,-25 20.9,-45.4 46.7,-45.4l56.9,0l0,-10.3l124.7,0l10.6,10.3l82.6,0c25.7,0 46.7,20.4 46.7,45.4l0,80.4l7.9,7.6l0,121.4l-7.9,0l0,173.9c0,25 -20.9,45.4 -46.7,45.4l-274.8,0l0,0.1z" class="st1"/>
  <path fill="#e0a41e" id="XMLID_556_" d="m1528.1,2804.4l-270.4,0c-18.3,0 -33.1,-14.8 -33.1,-33.1l0,-377.2c0,-18.3 14.8,-33.1 33.1,-33.1l270.4,0c18.3,0 33.1,14.8 33.1,33.1l0,377.2c0,18.3 -14.8,33.1 -33.1,33.1z" class="st2"/>
  <path fill="#fce379" id="XMLID_555_" d="m1237.8,2766.6l0,-367.7c0,-13.9 11.2,-25.1 25.1,-25.1l260.1,0c13.9,0 25.1,11.2 25.1,25.1l0,367.7c0,13.9 -11.2,25.1 -25.1,25.1l-260.1,0c-13.9,0 -25.1,-11.3 -25.1,-25.1z" class="st3"/>
  <polygon fill="#f5bd2f" points="1569,2585.1 1569,2485.5 1430.6,2350.7 1328.2,2350.7    " id="XMLID_554_" class="st4"/>
  <polygon fill="#ce8f11" points="1328.2,2350.7 1328.2,2361 1338.9,2361    " id="XMLID_553_" class="st5"/>
  <polygon fill="#ce8f11" points="1561.2,2577.5 1561.2,2585.1 1569,2585.1    " id="XMLID_552_" class="st5"/>
  <path fill="#f5bd2f" id="XMLID_928_" d="m1416.4,2713.4l-211.9,0l0,-109.4l211.9,0c29.8,0 54,24.2 54,54l0,1.4c0,29.8 -24.2,54 -54,54z" class="st4"/>
  <polygon fill="#ce8f11" points="1204.5,2713.4 1224.7,2728.6 1224.7,2713.4    " id="XMLID_930_" class="st5"/>
  <path fill="#ffffff" id="XMLID_165_" d="m1285.8,2673.3l0.2,0l16.2,-41.9l11.9,0l0,54.4l-9.3,0l0,-39.1l-0.2,0l-15.4,39.2l-6.4,0l-15.7,-39.9l-0.2,0.1l0,39.8l-9.3,0l0,-54.4l12.3,0l15.9,41.8z" class="st1"/>
  <path fill="#ffffff" id="XMLID_162_" d="m1337.6,2665.2l0,20.6l-9.3,0l0,-54.4l21.4,0c6.2,0 11,1.6 14.5,4.7c3.5,3.1 5.2,7.2 5.2,12.2c0,5.1 -1.7,9.2 -5.2,12.3c-3.5,3.1 -8.3,4.6 -14.5,4.6l-12.1,0zm0,-7.2l12.1,0c3.5,0 6.1,-0.9 7.8,-2.7c1.7,-1.8 2.6,-4.1 2.6,-6.8s-0.9,-5.1 -2.6,-6.9c-1.7,-1.8 -4.3,-2.8 -7.8,-2.8l-12.1,0l0,19.2z" class="st1"/>
  <path fill="#ffffff" id="XMLID_158_" d="m1410.3,2666.5l7.1,0l0,7.3l-7.1,0l0,12.1l-9.3,0l0,-12.1l-23.4,0l-0.2,-5.6l23.4,-36.8l9.6,0l0,35.1l-0.1,0zm-23.8,0l14.5,0l0,-22.2l-0.2,0l-0.9,2.1l-13.4,20.1z" class="st1"/>
  <path fill="#bfbfbf" id="XMLID_38_" d="m1798,1732.3c-25.7,0 -46.7,-20.4 -46.7,-45.4l0,-38.2l-20.2,-15.2l0,-132.5l20.2,0l0,-197.5c0,-25 20.9,-45.4 46.7,-45.4l56.9,0l0,-10.3l124.7,0l10.6,10.3l82.6,0c25.7,0 46.7,20.4 46.7,45.4l0,80.4l7.9,7.6l0,121.5l-7.9,0l0,173.9c0,25 -20.9,45.4 -46.7,45.4l-274.8,0z" class="st0"/>
  <path fill="#ffffff" id="XMLID_35_" d="m1781.7,1716.4c-25.7,0 -46.7,-20.4 -46.7,-45.4l0,-38.2l-20.2,-15.2l0,-132.4l20.2,0l0,-197.5c0,-25 20.9,-45.4 46.7,-45.4l56.9,0l0,-10.3l124.7,0l10.6,10.3l82.6,0c25.7,0 46.7,20.4 46.7,45.4l0,80.4l7.9,7.6l0,121.4l-7.9,0l0,173.9c0,25 -20.9,45.4 -46.7,45.4l-274.8,0z" class="st1"/>
  <path fill="#c41e4a" id="XMLID_32_" d="m2054.3,1701l-270.4,0c-18.3,0 -33.1,-14.8 -33.1,-33.1l0,-377.2c0,-18.3 14.8,-33.1 33.1,-33.1l270.4,0c18.3,0 33.1,14.8 33.1,33.1l0,377.2c0,18.3 -14.8,33.1 -33.1,33.1z" class="st6"/>
  <path fill="#f45671" id="XMLID_29_" d="m1764,1663.1l0,-367.7c0,-13.9 11.2,-25.1 25.1,-25.1l260.1,0c13.9,0 25.1,11.2 25.1,25.1l0,367.7c0,13.9 -11.2,25.1 -25.1,25.1l-260.1,0c-13.9,0 -25.1,-11.2 -25.1,-25.1z" class="st7"/>
  <polygon fill="#e03258" points="2095.3,1481.7 2095.3,1382.1 1956.8,1247.3 1854.4,1247.3    " id="XMLID_25_" class="st8"/>
  <polygon fill="#a50c3b" points="1854.4,1247.3 1854.4,1257.6 1865.1,1257.6    " id="XMLID_22_" class="st9"/>
  <polygon fill="#a50c3b" points="2087.4,1474 2087.4,1481.7 2095.3,1481.7    " id="XMLID_19_" class="st9"/>
  <path fill="#e03258" id="XMLID_16_" d="m1942.6,1609.9l-211.9,0l0,-109.4l211.9,0c29.8,0 54,24.2 54,54l0,1.4c0,29.9 -24.2,54 -54,54z" class="st8"/>
  <polygon fill="#a50c3b" points="1730.7,1609.9 1750.9,1625.2 1750.9,1609.9    " id="XMLID_13_" class="st9"/>
  <path fill="#ffffff" id="XMLID_124_" d="m1830.1,1565.2l0.1,0.2c0.1,5.8 -1.8,10.4 -5.8,14c-4,3.6 -9.3,5.3 -16.1,5.3c-6.8,0 -12.4,-2.3 -16.7,-6.8c-4.3,-4.5 -6.4,-10.3 -6.4,-17.3l0,-10.9c0,-7 2.1,-12.7 6.3,-17.3c4.2,-4.5 9.7,-6.8 16.5,-6.8c6.9,0 12.4,1.7 16.4,5.2c4,3.4 5.9,8.2 5.8,14.1l-0.1,0.2l-9.5,0c0,-3.8 -1.1,-6.8 -3.2,-8.8c-2.1,-2 -5.3,-3.1 -9.4,-3.1c-4,0 -7.2,1.5 -9.5,4.6c-2.3,3.1 -3.5,7 -3.5,11.7l0,11c0,4.8 1.2,8.7 3.6,11.8c2.4,3.1 5.6,4.6 9.7,4.6c4,0 7.1,-1 9.2,-3.1c2.1,-2 3.1,-5 3.1,-8.9l9.5,0l0,0.3z" class="st1"/>
  <path fill="#ffffff" id="XMLID_121_" d="m1872.8,1570.5l-20.8,0l-4.5,13.4l-10.2,0l20.5,-57.3l9.3,0l20.3,57.3l-10.2,0l-4.4,-13.4zm-18.1,-8l15.5,0l-7.6,-22.6l-0.2,0l-7.7,22.6z" class="st1"/>
  <path fill="#ffffff" id="XMLID_118_" d="m1897.2,1583.9l0,-57.3l19.5,0c7.5,0 13.5,2.3 18.2,6.8c4.7,4.5 7,10.4 7,17.5l0,8.7c0,7.2 -2.3,13 -7,17.5c-4.7,4.5 -10.8,6.8 -18.2,6.8l-19.5,0zm9.9,-49.6l0,42l9.6,0c4.7,0 8.5,-1.6 11.2,-4.7c2.8,-3.1 4.2,-7.1 4.2,-12l0,-8.8c0,-4.8 -1.4,-8.8 -4.2,-11.9c-2.8,-3.1 -6.5,-4.7 -11.2,-4.7l-9.6,0l0,0.1z" class="st1"/>
  <path fill="#bfbfbf" id="XMLID_78_" d="m132.9,1732.3c-25.7,0 -46.7,-20.4 -46.7,-45.4l0,-38.2l-20.2,-15.3l0,-132.4l20.2,0l0,-197.5c0,-25 20.9,-45.4 46.7,-45.4l56.9,0l0,-10.3l124.7,0l10.6,10.3l82.6,0c25.7,0 46.7,20.4 46.7,45.4l0,80.4l7.9,7.6l0,121.5l-7.9,0l0,173.9c0,25 -20.9,45.4 -46.7,45.4l-274.8,0z" class="st0"/>
  <path fill="#ffffff" id="XMLID_75_" d="m116.6,1716.4c-25.7,0 -46.7,-20.4 -46.7,-45.4l0,-38.2l-20.2,-15.2l0,-132.4l20.2,0l0,-197.5c0,-25 20.9,-45.4 46.7,-45.4l56.9,0l0,-10.3l124.7,0l10.6,10.3l82.6,0c25.7,0 46.7,20.4 46.7,45.4l0,80.4l7.9,7.6l0,121.4l-7.9,0l0,173.9c0,25 -20.9,45.4 -46.7,45.4l-274.8,0z" class="st1"/>
  <path fill="#16896b" id="XMLID_72_" d="m389.2,1701l-270.4,0c-18.3,0 -33.1,-14.8 -33.1,-33.1l0,-377.2c0,-18.3 14.8,-33.1 33.1,-33.1l270.4,0c18.3,0 33.1,14.8 33.1,33.1l0,377.2c0,18.3 -14.8,33.1 -33.1,33.1z" class="st10"/>
  <path fill="#49ebc8" id="XMLID_69_" d="m98.8,1663.1l0,-367.7c0,-13.9 11.2,-25.1 25.1,-25.1l260.1,0c13.9,0 25.1,11.2 25.1,25.1l0,367.7c0,13.9 -11.2,25.1 -25.1,25.1l-260.1,0c-13.8,0 -25.1,-11.2 -25.1,-25.1z" class="st11"/>
  <polygon fill="#2ebc9a" points="430.1,1481.7 430.1,1382.1 291.6,1247.3 189.3,1247.3    " id="XMLID_65_" class="st12"/>
  <polygon fill="#096047" points="189.3,1247.3 189.3,1257.6 199.9,1257.6    " id="XMLID_62_" class="st13"/>
  <polygon fill="#096047" points="422.3,1474 422.3,1481.7 430.1,1481.7    " id="XMLID_59_" class="st13"/>
  <path fill="#2ebc9a" id="XMLID_56_" d="m277.4,1609.9l-211.8,0l0,-109.4l211.9,0c29.8,0 54,24.2 54,54l0,1.4c-0.1,29.9 -24.2,54 -54.1,54z" class="st12"/>
  <polygon fill="#096047" points="65.6,1609.9 85.7,1625.2 85.7,1609.9    " id="XMLID_53_" class="st13"/>
  <path fill="#ffffff" id="XMLID_177_" d="m124.5,1581.7l0,-52.9l18,0c6.9,0 12.5,2.1 16.8,6.3c4.3,4.2 6.5,9.6 6.5,16.2l0,8c0,6.6 -2.2,12 -6.5,16.2c-4.3,4.2 -9.9,6.3 -16.8,6.3l-18,0l0,-0.1zm9.1,-45.8l0,38.8l8.9,0c4.4,0 7.8,-1.4 10.4,-4.3c2.6,-2.9 3.8,-6.6 3.8,-11.1l0,-8.1c0,-4.5 -1.3,-8.1 -3.8,-11c-2.6,-2.9 -6,-4.3 -10.4,-4.3l-8.9,0z" class="st1"/>
  <path fill="#ffffff" id="XMLID_174_" d="m220.7,1560c0,6.5 -2.1,11.8 -6.3,16.1c-4.2,4.3 -9.6,6.4 -16.3,6.4c-6.5,0 -11.8,-2.1 -15.9,-6.4c-4.1,-4.3 -6.1,-9.6 -6.1,-16.1l0,-9.5c0,-6.4 2,-11.8 6.1,-16.1c4.1,-4.3 9.4,-6.4 15.9,-6.4c6.6,0 12.1,2.1 16.2,6.4c4.2,4.3 6.3,9.6 6.3,16.1l0,9.5l0.1,0zm-9,-9.6c0,-4.4 -1.2,-8 -3.6,-10.9c-2.4,-2.8 -5.7,-4.3 -9.8,-4.3c-4,0 -7.2,1.4 -9.5,4.3c-2.3,2.8 -3.5,6.5 -3.5,10.9l0,9.6c0,4.5 1.2,8.1 3.5,11c2.3,2.8 5.5,4.3 9.4,4.3c4.2,0 7.4,-1.4 9.8,-4.3c2.4,-2.8 3.6,-6.5 3.6,-11l0,-9.6l0.1,0z" class="st1"/>
  <path fill="#ffffff" id="XMLID_172_" d="m272.4,1564.4l0.1,0.2c0.1,5.3 -1.7,9.6 -5.3,12.9c-3.7,3.3 -8.6,4.9 -14.8,4.9c-6.3,0 -11.5,-2.1 -15.4,-6.2c-3.9,-4.2 -5.9,-9.5 -5.9,-15.9l0,-10.1c0,-6.4 1.9,-11.8 5.8,-15.9c3.9,-4.2 8.9,-6.3 15.2,-6.3c6.4,0 11.4,1.6 15.1,4.8c3.7,3.2 5.5,7.5 5.4,13l-0.1,0.2l-8.8,0c0,-3.5 -1,-6.2 -2.9,-8.1c-2,-1.9 -4.9,-2.8 -8.7,-2.8c-3.7,0 -6.6,1.4 -8.8,4.3c-2.2,2.8 -3.2,6.4 -3.2,10.8l0,10.1c0,4.4 1.1,8 3.3,10.8c2.2,2.8 5.2,4.3 9,4.3c3.7,0 6.5,-0.9 8.5,-2.8c1.9,-1.9 2.9,-4.6 2.9,-8.2l8.6,0z" class="st1"/>
  <path fill="#bfbfbf" id="XMLID_909_" d="m132.9,506.2c-25.7,0 -46.7,-20.4 -46.7,-45.4l0,-38.2l-20.2,-15.3l0,-132.4l20.2,0l0,-197.5c0,-25 20.9,-45.4 46.7,-45.4l56.9,0l0,-10.3l124.7,0l10.7,10.3l82.6,0c25.7,0 46.7,20.4 46.7,45.4l0,80.4l7.9,7.6l0,121.4l-7.9,0l0,173.9c0,25 -20.9,45.4 -46.7,45.4l-274.9,0l0,0.1z" class="st0"/>
  <path fill="#ffffff" id="XMLID_908_" d="m116.6,490.3c-25.7,0 -46.7,-20.4 -46.7,-45.4l0,-38.2l-20.2,-15.2l0,-132.5l20.2,0l0,-197.5c0,-25 20.9,-45.4 46.7,-45.4l56.9,0l0,-10.3l124.7,0l10.6,10.3l82.6,0c25.7,0 46.7,20.4 46.7,45.4l0,80.5l7.9,7.6l0,121.4l-7.9,0l0,173.9c0,25 -20.9,45.4 -46.7,45.4l-274.8,0z" class="st1"/>
  <path fill="#0fbcf9" id="XMLID_907_" d="m389.2,474.9l-270.4,0c-18.3,0 -33.1,-14.8 -33.1,-33.1l0,-377.2c0,-18.3 14.8,-33.1 33.1,-33.1l270.4,0c18.3,0 33.1,14.8 33.1,33.1l0,377.2c0,18.3 -14.8,33.1 -33.1,33.1z" class="st2"/>
  <path fill="#8ee4ff" id="XMLID_906_" d="m98.8,437.1l0,-367.7c0,-13.9 11.2,-25.1 25.1,-25.1l260.1,0c13.9,0 25.1,11.2 25.1,25.1l0,367.7c0,13.9 -11.2,25.1 -25.1,25.1l-260.1,0c-13.8,0 -25.1,-11.3 -25.1,-25.1z" class="st3"/>
  <polygon fill="#4bcffa" points="430.1,255.6 430.1,156 291.6,21.2 189.3,21.2    " id="XMLID_905_" class="st4"/>
  <polygon fill="#0fbcf9" points="189.3,21.2 189.3,31.5 199.9,31.5    " id="XMLID_904_" class="st5"/>
  <polygon fill="#0fbcf9" points="422.3,248 422.3,255.6 430.1,255.6    " id="XMLID_903_" class="st5"/>
  <path fill="#4bcffa" id="XMLID_902_" d="m277.4,383.9l-211.8,0l0,-109.4l211.9,0c29.8,0 54,24.2 54,54l0,1.4c-0.1,29.8 -24.2,54 -54.1,54z" class="st4"/>
  <polygon fill="#0fbcf9" points="65.5999984741211,383.1959291100502 85.69999694824219,398.39594131708145 85.69999694824219,383.1959291100502 " id="XMLID_901_" class="st5"/>
  <path fill="#ffffff" id="XMLID_190_" d="m167.8,339.1l0.1,0.2c0.1,5.8 -1.8,10.4 -5.8,14c-4,3.6 -9.3,5.3 -16.1,5.3c-6.9,0 -12.4,-2.3 -16.7,-6.8c-4.3,-4.5 -6.4,-10.3 -6.4,-17.3l0,-10.9c0,-7 2.1,-12.7 6.3,-17.3c4.2,-4.5 9.7,-6.8 16.5,-6.8c6.9,0 12.4,1.7 16.4,5.2c4,3.4 5.9,8.2 5.8,14.1l-0.1,0.2l-9.5,0c0,-3.8 -1.1,-6.8 -3.2,-8.8c-2.1,-2 -5.3,-3.1 -9.4,-3.1c-4,0 -7.2,1.5 -9.5,4.6c-2.3,3.1 -3.5,7 -3.5,11.7l0,11c0,4.8 1.2,8.7 3.6,11.8c2.4,3.1 5.6,4.6 9.7,4.6c4,0 7.1,-1 9.2,-3.1c2.1,-2 3.1,-5 3.1,-8.9l9.5,0l0,0.3z" class="st1"/>
  <path fill="#ffffff" id="XMLID_188_" d="m210.8,343.1c0,-2.4 -0.9,-4.3 -2.6,-5.9c-1.7,-1.5 -4.8,-2.9 -9.2,-4.1c-6.3,-1.7 -11.2,-3.9 -14.7,-6.7c-3.4,-2.8 -5.2,-6.4 -5.2,-10.8c0,-4.6 1.9,-8.4 5.7,-11.4c3.8,-3 8.6,-4.5 14.6,-4.5c6.4,0 11.5,1.7 15.3,5c3.8,3.3 5.7,7.4 5.5,12.3l-0.1,0.2l-9.5,0c0,-3 -1,-5.4 -3.1,-7.2c-2.1,-1.8 -4.8,-2.7 -8.2,-2.7c-3.3,0 -5.9,0.8 -7.7,2.3c-1.8,1.5 -2.7,3.5 -2.7,5.9c0,2.2 1,4 3,5.5c2,1.4 5.2,2.8 9.8,4.1c6.2,1.7 10.9,4 14.1,6.9c3.2,2.9 4.9,6.6 4.9,11.1c0,4.8 -1.9,8.5 -5.7,11.4c-3.8,2.8 -8.9,4.3 -15.1,4.3c-6,0 -11.2,-1.5 -15.7,-4.6c-4.4,-3.1 -6.6,-7.5 -6.5,-13.1l0.1,-0.2l9.5,0c0,3.4 1.2,6 3.7,7.8c2.4,1.7 5.4,2.6 8.9,2.6c3.5,0 6.2,-0.7 8.1,-2.1c1.8,-1.7 2.8,-3.7 2.8,-6.1z" class="st1"/>
  <path fill="#ffffff" id="XMLID_186_" d="m264.2,343.1c0,-2.4 -0.9,-4.3 -2.6,-5.9c-1.7,-1.5 -4.8,-2.9 -9.2,-4.1c-6.3,-1.7 -11.2,-3.9 -14.7,-6.7c-3.4,-2.8 -5.2,-6.4 -5.2,-10.8c0,-4.6 1.9,-8.4 5.7,-11.4c3.8,-3 8.6,-4.5 14.6,-4.5c6.4,0 11.5,1.7 15.3,5c3.8,3.3 5.7,7.4 5.5,12.3l-0.1,0.2l-9.5,0c0,-3 -1,-5.4 -3.1,-7.2c-2.1,-1.8 -4.8,-2.7 -8.2,-2.7c-3.3,0 -5.9,0.8 -7.7,2.3c-1.8,1.5 -2.7,3.5 -2.7,5.9c0,2.2 1,4 3,5.5c2,1.4 5.2,2.8 9.8,4.1c6.2,1.7 10.9,4 14.1,6.9c3.2,2.9 4.9,6.6 4.9,11.1c0,4.8 -1.9,8.5 -5.7,11.4c-3.8,2.8 -8.9,4.3 -15.1,4.3c-6,0 -11.2,-1.5 -15.7,-4.6c-4.4,-3.1 -6.6,-7.5 -6.5,-13.1l0.1,-0.2l9.5,0c0,3.4 1.2,6 3.7,7.8c2.4,1.7 5.4,2.6 8.9,2.6c3.5,0 6.2,-0.7 8.1,-2.1c1.9,-1.7 2.8,-3.7 2.8,-6.1z" class="st1"/>
 </g>
</svg>